<svg width="44" height="44" viewBox="0 0 44 44" fill="none" xmlns="http://www.w3.org/2000/svg">
<rect x="0.5" y="0.5" width="43" height="43" rx="5.5" fill="#050505"/>
<rect x="0.5" y="0.5" width="43" height="43" rx="5.5" stroke="#222222"/>
<path d="M32.884 25.1979C31.3956 24.0847 29.9035 22.9737 28.4077 21.8648C28.1565 21.6777 27.9121 21.4982 27.6531 21.3177C27.6832 21.2575 27.7067 21.2083 27.729 21.1754C28.4311 20.0319 29.14 18.8884 29.8343 17.745C30.2451 17.0643 30.4594 16.3399 30.3366 15.54C30.2882 15.1515 30.1582 14.7771 29.955 14.4402C29.7517 14.1033 29.4796 13.8112 29.1556 13.5824C27.9199 12.6928 26.2532 12.8569 25.1526 13.8658C24.1379 14.8003 23.1321 15.7567 22.1252 16.7109C22.0269 16.8083 21.9655 16.8203 21.8584 16.7185C21.3706 16.2327 20.8671 15.7622 20.3648 15.296C19.8234 14.7719 19.2864 14.2488 18.7138 13.7706C18.3807 13.4822 17.9889 13.2665 17.5644 13.1376C17.1399 13.0088 16.6923 12.9698 16.2512 13.0233C15.1539 13.1502 14.3837 13.7411 13.907 14.6898C13.4337 15.6166 13.5096 16.55 14.0052 17.4407C14.4652 18.2921 15.001 19.115 15.5122 19.9521C15.779 20.3898 16.0537 20.8329 16.335 21.2892C16.2747 21.3341 16.2233 21.379 16.1753 21.4238C14.4752 22.6943 12.7673 23.9505 11.0817 25.2351C10.2277 25.8917 9.87719 26.7671 10.0379 27.8219C10.2612 29.2269 11.7604 30.2424 13.1792 29.936C14.1871 29.7141 15.174 29.4092 16.1296 29.0245C16.911 28.7181 17.6846 28.3898 18.3789 27.9182C19.6972 27.0297 20.1248 25.6389 19.7888 24.1978C19.5912 23.3836 19.1636 22.6658 18.7595 21.9403C18.6915 21.821 18.6915 21.7543 18.8053 21.6711C19.8234 20.8778 20.8493 20.0812 21.8628 19.2868C21.9622 19.2047 22.0236 19.2189 22.1218 19.2868C23.1444 20.0892 24.1661 20.8862 25.1872 21.6777C25.2709 21.7455 25.2865 21.7871 25.2408 21.8801C25.1035 22.099 24.9818 22.3277 24.859 22.552C24.3254 23.5018 23.9749 24.4954 24.1044 25.6017C24.1715 26.315 24.5022 26.9796 25.0342 27.4707C25.4696 27.8733 26.0032 28.1425 26.529 28.4117C27.7852 29.0457 29.1099 29.5398 30.4784 29.8846C31.2107 30.0783 31.9296 30.0411 32.5994 29.6745C34.3352 28.7181 34.4893 26.4016 32.884 25.1979ZM17.5093 26.3491C17.0745 26.6371 16.6186 26.8931 16.1452 27.115C15.1219 27.5708 14.0571 27.9309 12.9649 28.1907C12.3855 28.3406 11.8832 28.0342 11.776 27.4728C11.7001 27.0921 11.8977 26.8163 12.1801 26.5974C12.8052 26.1116 13.4304 25.6334 14.0633 25.1552C15.068 24.4155 16.0603 23.6835 17.0672 22.9426C17.113 22.9131 17.1666 22.8836 17.2581 22.8157C17.4557 23.2195 17.6466 23.5937 17.8163 23.9745C17.9872 24.3543 18.0805 24.7632 18.0909 25.1782C18.1111 25.4067 18.0677 25.6363 17.9653 25.8425C17.8629 26.0487 17.7053 26.2238 17.5093 26.3491ZM20.559 18.1115C19.6827 18.7856 18.7975 19.4662 17.9257 20.1457C17.7962 20.2552 17.7504 20.2278 17.6667 20.0932C17.0907 19.1368 16.4957 18.1805 15.9163 17.2164C15.7463 16.9617 15.597 16.6943 15.4698 16.4165C15.3703 16.1737 15.3518 15.9062 15.417 15.6524C15.4822 15.3986 15.6277 15.1716 15.8326 15.0039C16.0308 14.8421 16.276 14.7457 16.5332 14.7282C16.7905 14.7107 17.0469 14.7731 17.2659 14.9065C17.5284 15.0723 17.771 15.2664 17.9893 15.4853C18.8589 16.2819 19.7117 17.0895 20.5746 17.9036C20.6048 17.9332 20.6282 17.9638 20.6863 18.0306C20.6427 18.0612 20.597 18.0831 20.559 18.1115ZM23.3955 18.0831C23.563 17.9036 23.7237 17.7318 23.8833 17.5677C24.5464 16.8947 25.2106 16.2218 25.8815 15.5641C26.1213 15.3334 26.3829 15.1256 26.6629 14.9437C26.8955 14.7841 27.1778 14.7095 27.4607 14.7329C27.7436 14.7563 28.0092 14.8762 28.2112 15.0717C28.4134 15.2624 28.5439 15.5144 28.5816 15.7869C28.6192 16.0594 28.5619 16.3364 28.4189 16.573C27.7022 17.7687 26.9829 18.9672 26.2611 20.1687C26.2454 20.1906 26.2231 20.2136 26.193 20.2508C25.2631 19.5341 24.341 18.8151 23.3955 18.0831ZM31.0656 28.1874C29.8756 27.8668 28.6868 27.5221 27.5738 26.999C27.2434 26.842 26.9248 26.6621 26.6205 26.4607C25.934 26.0055 25.7364 25.3664 25.9273 24.6004C26.0869 23.9723 26.4151 23.4197 26.7578 22.8496C27.0782 23.0882 27.3751 23.3125 27.6732 23.5368C29.0455 24.5581 30.4178 25.5845 31.7901 26.6161C31.9184 26.6994 32.023 26.8135 32.0937 26.9475C32.1644 27.0816 32.199 27.2312 32.1942 27.382C32.1882 27.5134 32.1522 27.6417 32.0887 27.7575C32.0253 27.8733 31.936 27.9736 31.8276 28.051C31.7192 28.1283 31.5944 28.1808 31.4625 28.2044C31.3306 28.228 31.1949 28.2222 31.0656 28.1874Z" fill="white"/>
</svg>
